<svg viewBox="0 0 1500 1500" height="200dp" width="200dp" xmlns="http://www.w3.org/2000/svg">
        <path fill="#4DBBF7" d="m982.7,421.8l-324.9,0c-44.9,0 -81.2,36.4 -81.2,81.2l0,649.7c0,44.9 36.4,81.2 81.2,81.2l324.9,0c44.9,0 81.2,-36.4 81.2,-81.2l0,-649.7c0,-44.8 -36.4,-81.2 -81.2,-81.2z"/>
    <path fill="#3d3c36" d="m881.1,360.9c22.4,0 40.6,18.2 40.6,40.6l0,649.7c0,22.4 -18.2,40.6 -40.6,40.6l-324.8,0c-22.4,0 -40.6,-18.2 -40.6,-40.6l0,-649.7c0,-22.4 18.2,-40.6 40.6,-40.6l324.8,0m0,-60.9l-324.8,0c-56.1,0 -101.5,45.5 -101.5,101.5l0,649.7c0,56.1 45.5,101.5 101.5,101.5l324.9,0c56.1,0 101.5,-45.5 101.5,-101.5l0,-649.7c0,-56 -45.5,-101.5 -101.6,-101.5z"/>
    <path fill="#3d3c36" d="m739,1071.6l-40.6,0c-22.3,0 -40.6,-18.3 -40.6,-40.6l0,-40.6c0,-22.3 18.3,-40.6 40.6,-40.6l40.6,0c22.3,0 40.6,18.3 40.6,40.6l0,40.6c0,22.3 -18.3,40.6 -40.6,40.6z"/>
</svg>
