<svg width="1300" height="1300" xmlns="http://www.w3.org/2000/svg" p-id="13665" version="1.1" class="icon" t="1702126597349">
 <g>
  <title>Layer 1</title>
  <path stroke="null" id="svg_2" p-id="13667" d="m856.11998,246.13214c19.93301,0 36.12858,16.95907 36.12858,37.83178l0,605.40162c0,20.8727 -16.19557,37.83178 -36.12858,37.83178l-289.02861,0c-19.93301,0 -36.12858,-16.95907 -36.12858,-37.83178l0,-605.40162c0,-20.8727 16.19557,-37.83178 36.12858,-37.83178l289.02861,0m0,-56.74767l-289.02861,0c-49.92151,0 -90.32144,42.39768 -90.32144,94.57944l0,605.40162c0,52.27494 40.48892,94.57944 90.32144,94.57944l289.1176,0c49.92151,0 90.32144,-42.39768 90.32144,-94.57944l0,-605.40162c0,-52.18176 -40.48892,-94.57944 -90.41043,-94.57944z"/>
  <rect stroke="null" id="svg_4" height="785.81234" width="520.83922" y="284.00282" x="327.77127" fill="#ffffff"/>
  <path id="svg_3" p-id="13668" d="m604.75353,1019.12396l-40.6,0c-22.3,0 -40.6,-18.3 -40.6,-40.6l0,-40.6c0,-22.3 18.3,-40.6 40.6,-40.6l40.6,0c22.3,0 40.6,18.3 40.6,40.6l0,40.6c0,22.3 -18.3,40.6 -40.6,40.6z"/>
  <path stroke="null" id="svg_7" p-id="13667" d="m725.88745,367.06235c19.93301,0 36.12858,16.95908 36.12858,37.83178l0,605.40162c0,20.8727 -16.19557,37.83178 -36.12858,37.83178l-289.02861,0c-19.933,0 -36.12857,-16.95908 -36.12857,-37.83178l0,-605.40162c0,-20.8727 16.19557,-37.83178 36.12857,-37.83178l289.02861,0m0,-56.74766l-289.02861,0c-49.9215,0 -90.32144,42.39768 -90.32144,94.57944l0,605.40162c0,52.27494 40.48892,94.57944 90.32144,94.57944l289.1176,0c49.92151,0 90.32144,-42.39768 90.32144,-94.57944l0,-605.40162c0,-52.18176 -40.48892,-94.57944 -90.41043,-94.57944z"/>
  <rect rx="30" id="svg_9" height="60" width="200" y="402.49046" x="478.88857"/>
 </g>

</svg>